<svg xmlns="http://www.w3.org/2000/svg" viewBox="0 0 800 500" width="100%" height="100%">
  <defs>
    <radialGradient id="bg-glow" cx="50%" cy="50%" r="50%">
      <stop offset="0%" stop-color="#22252A" />
      <stop offset="100%" stop-color="#141619" />
    </radialGradient>

    <linearGradient id="prom-light" x1="0" y1="0" x2="0" y2="1"><stop offset="0%" stop-color="#FFC107"/><stop offset="100%" stop-color="#FF9800"/></linearGradient>
    <linearGradient id="prom-mid" x1="0" y1="0" x2="0" y2="1"><stop offset="0%" stop-color="#FF9800"/><stop offset="100%" stop-color="#E65100"/></linearGradient>
    <linearGradient id="prom-dark" x1="0" y1="0" x2="0" y2="1"><stop offset="0%" stop-color="#E65100"/><stop offset="100%" stop-color="#BF360C"/></linearGradient>

    <linearGradient id="gold-light" x1="0" y1="0" x2="1" y2="0"><stop offset="0%" stop-color="#FFE082"/><stop offset="100%" stop-color="#FFCA28"/></linearGradient>
    <linearGradient id="gold-dark" x1="0" y1="0" x2="1" y2="0"><stop offset="0%" stop-color="#FFA000"/><stop offset="100%" stop-color="#B78103"/></linearGradient>

    <filter id="drop-shadow" x="-10%" y="-10%" width="120%" height="120%">
      <feDropShadow dx="0" dy="12" stdDeviation="10" flood-color="#000000" flood-opacity="0.5" />
    </filter>
  </defs>

  <rect width="100%" height="100%" fill="url(#bg-glow)" />

  <g filter="url(#drop-shadow)" transform="translate(0, 10)">

    <path d="M 310 210 Q 400 270, 490 210 L 460 240 Q 400 285, 340 240 Z" fill="#FFFFFF" />

    <g transform="rotate(-12, 360, 240)">
      <rect x="330" y="120" width="60" height="150" rx="8" fill="#2E3440" stroke="#4C566A" stroke-width="3" />
      <rect x="333" y="123" width="54" height="144" rx="5" fill="#1A1C23" />
      <path d="M 342 140 L 350 145 L 342 150" fill="none" stroke="#A3BE8C" stroke-width="3" stroke-linecap="round" stroke-linejoin="round" />
      <line x1="353" y1="150" x2="363" y2="150" stroke="#A3BE8C" stroke-width="3" stroke-linecap="round" />
      <circle cx="345" cy="165" r="3" fill="#81A1C1" />
      <line x1="353" y1="165" x2="375" y2="165" stroke="#81A1C1" stroke-width="3" stroke-linecap="round" />
      <circle cx="345" cy="177" r="3" fill="#81A1C1" />
      <line x1="353" y1="177" x2="368" y2="177" stroke="#81A1C1" stroke-width="3" stroke-linecap="round" />
      <circle cx="345" cy="189" r="3" fill="#BF616A" />
      <line x1="353" y1="189" x2="372" y2="189" stroke="#BF616A" stroke-width="3" stroke-linecap="round" />
    </g>

    <g transform="rotate(15, 440, 240)">
      <rect x="410" y="120" width="55" height="150" rx="6" fill="url(#gold-dark)" />
      <path d="M 410 120 L 450 120 L 440 270 L 410 270 Z" fill="url(#gold-light)" />
      <circle cx="425" cy="145" r="3" fill="#B78103" />
      <path d="M 425 145 L 425 185 L 440 205 L 440 240" fill="none" stroke="#B78103" stroke-width="2.5" stroke-linecap="round" />
      <circle cx="440" cy="170" r="3" fill="#B78103" />
      <path d="M 440 170 L 433 180" fill="none" stroke="#B78103" stroke-width="2.5" stroke-linecap="round" />
    </g>

    <g transform="translate(0, -10)">
      <polygon points="400,240 370,170 400,195" fill="url(#prom-dark)" />
      <polygon points="400,240 430,170 400,195" fill="url(#prom-mid)" />

      <polygon points="370,170 355,140 385,145" fill="url(#prom-mid)" />
      <polygon points="430,170 445,140 415,145" fill="url(#prom-light)" />

      <polygon points="400,195 370,140 400,120" fill="url(#prom-mid)" />
      <polygon points="400,195 430,140 400,120" fill="url(#prom-light)" />

      <polygon points="400,120 380,90 400,50" fill="url(#prom-light)" />
      <polygon points="400,120 420,90 400,50" fill="url(#prom-light)" />
      <polygon points="380,90 365,115 370,140" fill="url(#prom-dark)" />
      <polygon points="420,90 435,115 430,140" fill="url(#prom-mid)" />

      <polygon points="378,180 422,180 415,186 385,186" fill="#141619" opacity="0.3" />
      <polygon points="375,173 425,173 421,177 379,177" fill="url(#prom-light)" />
      <polygon points="383,188 417,188 414,192 386,192" fill="url(#prom-mid)" />
    </g>

    <path d="M 280 200 C 340 260, 460 260, 520 200 L 490 410 C 440 430, 360 430, 310 410 Z" fill="#D32F2F" />
    <path d="M 280 200 C 340 260, 460 260, 520 200 C 470 240, 330 240, 280 200 Z" fill="#991B1B" />

    <path d="M 330 228 C 340 235, 345 237, 355 240 L 340 418 C 333 416, 328 414, 322 412 Z" fill="#FFFFFF" />
    <path d="M 445 240 C 455 237, 460 235, 470 228 L 478 412 C 472 414, 467 416, 460 418 Z" fill="#FFFFFF" />

    <path d="M 390 242 C 395 243, 400 243, 405 242 L 405 275 L 390 275 Z" fill="#FFFFFF" />
    <path d="M 390 365 L 405 365 L 405 425 C 400 425, 395 425, 390 425 Z" fill="#FFFFFF" />

    <rect x="306" y="280" width="188" height="60" rx="10" fill="#D32F2F" stroke="#B71C1C" stroke-width="1.5"/>
    <text x="400" y="335" fill="#FFFFFF" font-family="-apple-system, BlinkMacSystemFont, 'Segoe UI', Roboto, Helvetica, Arial, sans-serif" font-weight="800" font-size="64" letter-spacing="-1" text-anchor="middle">fritte</text>

    <g fill="none" stroke="#FF9800" stroke-width="3" stroke-linecap="round">
      <path d="M 320 365 Q 350 350, 380 375 T 440 365 T 480 370" opacity="0.6"/>
      <path d="M 330 375 Q 360 385, 400 365 T 470 375" opacity="0.4"/>
      <circle cx="350" cy="358" r="4" fill="#FFC107" />
      <circle cx="395" cy="367" r="5" fill="#FF5722" />
      <circle cx="440" cy="365" r="4" fill="#FFC107" />
    </g>

  </g>
</svg>